<?xml version="1.0" encoding="UTF-8" standalone="no"?><!DOCTYPE svg PUBLIC "-//W3C//DTD SVG 1.1//EN" "http://www.w3.org/Graphics/SVG/1.1/DTD/svg11.dtd"><svg width="100%" height="100%" viewBox="0 0 480 480" version="1.1" xmlns="http://www.w3.org/2000/svg" xmlns:xlink="http://www.w3.org/1999/xlink" xml:space="preserve" xmlns:serif="http://www.serif.com/" style="fill-rule:evenodd;clip-rule:evenodd;stroke-linecap:round;stroke-linejoin:round;stroke-miterlimit:1;"><g transform="matrix(-5.67943,-6.9553e-16,6.9553e-16,-5.67943,1421.65,1336.13)"><path d="M180,201.771L178.72,201.771C176.394,201.771 174.163,200.847 172.518,199.202C170.873,197.557 169.949,195.326 169.949,193C169.949,190.674 170.873,188.443 172.518,186.798C174.163,185.153 176.394,184.229 178.72,184.229L180,184.229L180,170.422C180,167.427 182.427,165 185.422,165L205.208,165L205.208,163.65C205.208,161.324 206.132,159.093 207.777,157.448C209.422,155.804 211.653,154.88 213.979,154.88C216.305,154.88 218.536,155.804 220.181,157.448C221.826,159.093 222.75,161.324 222.75,163.65C222.75,163.65 222.712,167.845 222.223,169.563C221.154,173.317 218.629,176.408 216.032,179.169C212.997,182.395 209.285,184.969 205.07,186.715C199.379,189.073 194.318,192.476 190.026,196.832C185.884,201.037 182.633,205.945 180.366,211.419C180.208,211.8 180.087,212.186 180,212.575L180,201.771Z" style="fill:none;stroke:rgb(254,249,254);stroke-width:5.76px;"/></g><g transform="matrix(5.67943,0,0,5.67943,-941.647,-856.13)"><path d="M180,201.771L178.72,201.771C176.394,201.771 174.163,200.847 172.518,199.202C170.873,197.557 169.949,195.326 169.949,193C169.949,190.674 170.873,188.443 172.518,186.798C174.163,185.153 176.394,184.229 178.72,184.229L180,184.229L180,170.422C180,167.427 182.427,165 185.422,165L205.208,165L205.208,163.65C205.208,161.324 206.132,159.093 207.777,157.448C209.422,155.804 211.653,154.88 213.979,154.88C216.305,154.88 218.536,155.804 220.181,157.448C221.826,159.093 222.75,161.324 222.75,163.65C222.75,163.65 222.712,167.845 222.223,169.563C221.154,173.317 218.629,176.408 216.032,179.169C212.997,182.395 209.285,184.969 205.07,186.715C199.379,189.073 194.318,192.476 190.026,196.832C185.884,201.037 182.633,205.945 180.366,211.419C180.208,211.8 180.087,212.186 180,212.575L180,201.771Z" style="fill:none;stroke:rgb(254,249,254);stroke-width:5.76px;"/></g></svg>